<svg xmlns="http://www.w3.org/2000/svg" width="28" height="24" viewBox="0 0 28 24">
  <g id="Icon_feather-camera" data-name="Icon feather-camera" transform="translate(-0.5 -3.5)">
    <path id="パス_1" data-name="パス 1" d="M27.5,24.056A2.4,2.4,0,0,1,25.136,26.5H3.864A2.4,2.4,0,0,1,1.5,24.056V10.611A2.4,2.4,0,0,1,3.864,8.167H8.591L10.955,4.5h7.091l2.364,3.667h4.727A2.4,2.4,0,0,1,27.5,10.611Z" transform="translate(0 0)" fill="none" stroke="#fff" stroke-linecap="round" stroke-linejoin="round" stroke-width="2"/>
    <path id="パス_2" data-name="パス 2" d="M22.752,18.876A5.376,5.376,0,1,1,17.376,13.5a5.376,5.376,0,0,1,5.376,5.376Z" transform="translate(-2.876 -2.251)" fill="none" stroke="#fff" stroke-linecap="round" stroke-linejoin="round" stroke-width="2"/>
  </g>
</svg>
