<svg xmlns="http://www.w3.org/2000/svg" width="23" height="23" viewBox="0 0 23 23">
  <g id="Icon_ionic-md-albums" data-name="Icon ionic-md-albums" transform="translate(-3.375 -3.375)">
    <path id="パス_3" data-name="パス 3" d="M10.219,27.2H24.86A2.35,2.35,0,0,0,27.2,24.855V10.219A2.35,2.35,0,0,0,24.86,7.875H10.219a2.35,2.35,0,0,0-2.344,2.344V24.86A2.349,2.349,0,0,0,10.219,27.2Z" transform="translate(-0.83 -0.824)" fill="#fff"/>
    <path id="パス_4" data-name="パス 4" d="M5.719,3.375H20.36A2.35,2.35,0,0,1,22.7,5.719V6.01H8.354A2.35,2.35,0,0,0,6.01,8.354V22.7H5.719a2.35,2.35,0,0,1-2.344-2.344V5.719A2.35,2.35,0,0,1,5.719,3.375Z" fill="#fff"/>
  </g>
</svg>
