<svg xmlns="http://www.w3.org/2000/svg" width="48" height="40" viewBox="0 0 48 40">
  <g id="Icon_feather-camera" data-name="Icon feather-camera" transform="translate(0.5 -2.5)">
    <path id="パス_1" data-name="パス 1" d="M45.5,36.5a4,4,0,0,1-4,4H5.5a4,4,0,0,1-4-4v-22a4,4,0,0,1,4-4h8l4-6h12l4,6h8a4,4,0,0,1,4,4Z" transform="translate(0 0)" fill="none" stroke="#fccd74" stroke-linecap="round" stroke-linejoin="round" stroke-width="4"/>
    <path id="パス_2" data-name="パス 2" d="M28.611,21.806A8.306,8.306,0,1,1,20.306,13.5a8.306,8.306,0,0,1,8.306,8.306Z" transform="translate(3.194 2.633)" fill="none" stroke="#fccd74" stroke-linecap="round" stroke-linejoin="round" stroke-width="4"/>
  </g>
</svg>
