<svg xmlns="http://www.w3.org/2000/svg" width="29" height="23" viewBox="0 0 29 23">
  <path id="Icon_awesome-book-open" data-name="Icon awesome-book-open" d="M27.3,2.252c-2.759.16-8.243.741-11.628,2.854a.793.793,0,0,0-.366.676V24.463a.8.8,0,0,0,1.172.693c3.483-1.788,8.52-2.275,11.011-2.409A1.587,1.587,0,0,0,29,21.173V3.829a1.591,1.591,0,0,0-1.7-1.576ZM13.329,5.106C9.944,2.993,4.46,2.413,1.7,2.252A1.592,1.592,0,0,0,0,3.829V21.173a1.586,1.586,0,0,0,1.511,1.574c2.492.133,7.532.622,11.015,2.41a.794.794,0,0,0,1.169-.691V5.773A.776.776,0,0,0,13.329,5.106Z" transform="translate(0 -2.25)" fill="#fff"/>
</svg>
